<svg width="18" height="18" viewBox="0 0 18 18" fill="none" xmlns="http://www.w3.org/2000/svg">
<g clip-path="url(#clip0_32_1476)">
<path d="M15.3676 18H2.63338C1.18117 18 0 16.8188 0 15.3666V2.63338C0 1.18117 1.18117 0 2.63338 0H15.3676C16.8198 0 18.0009 1.18117 18.0009 2.63338V15.3666C18.0009 16.8188 16.8198 18 15.3676 18ZM2.63338 0.951022C1.70613 0.951022 0.951022 1.70518 0.951022 2.63338V15.3666C0.951022 16.2939 1.70518 17.049 2.63338 17.049H15.3676C16.2948 17.049 17.0499 16.2948 17.0499 15.3666V2.63338C17.0499 1.70613 16.2958 0.951022 15.3676 0.951022H2.63338Z" fill="#06D9E2"/>
<path d="M9.0005 10.5716C7.16312 10.5716 5.66907 9.07655 5.66907 7.24012C5.66907 5.4037 7.16407 3.90869 9.0005 3.90869C10.8369 3.90869 12.3319 5.4037 12.3319 7.24012C12.3319 9.07655 10.8369 10.5716 9.0005 10.5716ZM9.0005 4.38325C7.42561 4.38325 6.14458 5.66428 6.14458 7.23917C6.14458 8.81406 7.42561 10.0951 9.0005 10.0951C10.5754 10.0951 11.8564 8.81406 11.8564 7.23917C11.8564 5.66428 10.5754 4.38325 9.0005 4.38325Z" fill="#06D9E2"/>
<path d="M6.86354 14.0923C5.02616 14.0923 3.5321 12.5973 3.5321 10.7609C3.5321 8.92445 5.02711 7.42944 6.86354 7.42944C8.69996 7.42944 10.195 8.92445 10.195 10.7609C10.195 12.5973 8.69996 14.0923 6.86354 14.0923ZM6.86354 7.904C5.28864 7.904 4.00762 9.18503 4.00762 10.7599C4.00762 12.3348 5.28864 13.6158 6.86354 13.6158C8.43843 13.6158 9.71946 12.3348 9.71946 10.7599C9.71946 9.18503 8.43843 7.904 6.86354 7.904Z" fill="#06D9E2"/>
<path d="M11.1365 14.0923C9.29911 14.0923 7.80505 12.5973 7.80505 10.7609C7.80505 8.92445 9.30006 7.42944 11.1365 7.42944C12.9729 7.42944 14.4679 8.92445 14.4679 10.7609C14.4679 12.5973 12.9729 14.0923 11.1365 14.0923ZM11.1365 7.904C9.56159 7.904 8.28056 9.18503 8.28056 10.7599C8.28056 12.3348 9.56159 13.6158 11.1365 13.6158C12.7114 13.6158 13.9924 12.3348 13.9924 10.7599C13.9924 9.18503 12.7114 7.904 11.1365 7.904Z" fill="#06D9E2"/>
</g>
<defs>
<clipPath id="clip0_32_1476">
<rect width="18" height="18" fill="white"/>
</clipPath>
</defs>
</svg>
