<svg width="18" height="18" viewBox="0 0 18 18" fill="none" xmlns="http://www.w3.org/2000/svg">
<g clip-path="url(#clip0_25_1297)">
<path d="M15.5673 0H2.43272C1.09082 0 0 1.09177 0 2.43272V15.5673C0 16.2378 0.272943 16.8464 0.713267 17.2867L1.38564 16.6144C1.11745 16.3462 0.951022 15.9753 0.951022 15.5673V2.43272C0.951022 1.61579 1.61579 0.951022 2.43272 0.951022H15.5673C15.9753 0.951022 16.3462 1.11745 16.6144 1.38564L17.2867 0.713267C16.8464 0.272943 16.2378 0 15.5673 0Z" fill="#06D9E2"/>
<path d="M18 2.43283V15.5674C18 16.9093 16.9082 18.0001 15.5673 18.0001H2.43271C1.76128 18.0001 1.15358 17.7272 0.713257 17.2868L1.38563 16.6145C1.65382 16.8827 2.02377 17.0491 2.43271 17.0491H15.5673C16.3842 17.0491 17.049 16.3843 17.049 15.5674V2.43283C17.049 2.02389 16.8825 1.65394 16.6144 1.38575L17.2867 0.713379C17.727 1.15465 18 1.76236 18 2.43283Z" fill="#06D9E2"/>
<path d="M9.90209 3.89722L11 7L7 11L3.89734 9.90387V8.09788L7 7L8.0961 3.89722H9.90209Z" fill="#06D9E2"/>
<path d="M14.1028 8.09788V9.90387L11 11L9.90209 14.1026H8.0961L7 11L11 7L14.1028 8.09788Z" fill="#06D9E2"/>
</g>
<defs>
<clipPath id="clip0_25_1297">
<rect width="18" height="18" fill="white"/>
</clipPath>
</defs>
</svg>
