<svg width="18" height="18" viewBox="0 0 18 18" fill="none" xmlns="http://www.w3.org/2000/svg">
<g clip-path="url(#clip0_32_1482)">
<path d="M9.33908 15.4603C8.41754 15.4603 7.50265 15.1788 6.7076 14.6262C5.38948 13.7104 4.6667 12.2182 4.77417 10.6338C4.82552 9.86732 5.10798 9.11886 5.34764 8.55205C6.28439 6.33903 7.74136 4.41225 9.15363 2.62909L9.34288 2.39038L9.52738 2.63289C9.66908 2.81929 9.80793 2.99904 9.94393 3.17688C10.2368 3.55824 10.5145 3.91772 10.7837 4.29052C11.7718 5.65334 12.8778 7.30051 13.5835 9.18353C14.584 11.854 13.1175 14.1992 11.2288 15.0513C10.6211 15.3252 9.97816 15.4612 9.33908 15.4612V15.4603ZM9.33622 3.16261C8.00384 4.85353 6.65624 6.67664 5.7832 8.7375C5.55781 9.27008 5.29343 9.97003 5.24588 10.6662C5.14982 12.0822 5.79747 13.4175 6.97769 14.2382C8.18549 15.078 9.70237 15.2206 11.0338 14.6196C12.7266 13.8559 14.04 11.7503 13.1403 9.34901C12.4546 7.51829 11.3705 5.90536 10.4004 4.56822C10.1341 4.20113 9.85929 3.84449 9.56827 3.46599C9.49124 3.36613 9.41326 3.26532 9.33527 3.16261H9.33622Z" fill="#06D9E2"/>
<path d="M12.3795 9.20179C11.8793 7.8675 11.1146 6.68918 10.2863 5.54606C9.98864 5.13521 9.67385 4.73674 9.33909 4.29736C8.21688 5.71534 7.17266 7.11239 6.48697 8.73293C6.28345 9.2132 6.10181 9.73531 6.06757 10.2489C5.90209 12.6968 8.45749 14.42 10.6943 13.412C12.0752 12.789 13.0909 11.1 12.3805 9.20274L12.3795 9.20179ZM11.4817 12.2394C11.2278 12.5732 10.8893 12.7434 10.7266 12.6188C10.564 12.4952 10.6391 12.1243 10.8931 11.7905C11.147 11.4567 11.4855 11.2864 11.6482 11.4101C11.8108 11.5337 11.7357 11.9046 11.4817 12.2394Z" fill="#06D9E2"/>
<path d="M0.951022 2.94015H0V1.39093C0 0.850749 0.439372 0.411377 0.979553 0.411377H2.94056V1.3624H0.979553C0.963386 1.3624 0.951022 1.37571 0.951022 1.39093V2.94015Z" fill="#06D9E2"/>
<path d="M2.94056 17.5888H0.979553C0.439372 17.5888 0 17.1495 0 16.6093V15.0601H0.951022V16.6093C0.951022 16.6254 0.964337 16.6378 0.979553 16.6378H2.94056V17.5888Z" fill="#06D9E2"/>
<path d="M18 2.94015H17.049V1.39093C17.049 1.37476 17.0357 1.3624 17.0205 1.3624H15.0604V0.411377H17.0205C17.5607 0.411377 18 0.850749 18 1.39093V2.94015Z" fill="#06D9E2"/>
<path d="M17.0205 17.5888H15.0604V16.6378H17.0205C17.0366 16.6378 17.049 16.6245 17.049 16.6093V15.0601H18V16.6093C18 17.1495 17.5607 17.5888 17.0205 17.5888Z" fill="#06D9E2"/>
</g>
<defs>
<clipPath id="clip0_32_1482">
<rect width="18" height="17.1774" fill="white" transform="translate(0 0.411377)"/>
</clipPath>
</defs>
</svg>
