<svg width="18" height="18" viewBox="0 0 18 18" fill="none" xmlns="http://www.w3.org/2000/svg">
<g clip-path="url(#clip0_32_1472)">
<path d="M15.5673 18H2.43272C1.09082 18 0 16.9082 0 15.5673V2.43272C0 1.09177 1.09177 0 2.43272 0H15.5673C16.9092 0 18 1.09177 18 2.43272V15.5673C18 16.9092 16.9082 18 15.5673 18ZM2.43272 0.951022C1.61579 0.951022 0.951022 1.61579 0.951022 2.43272V15.5673C0.951022 16.3842 1.61579 17.049 2.43272 17.049H15.5673C16.3842 17.049 17.049 16.3842 17.049 15.5673V2.43272C17.049 1.61579 16.3842 0.951022 15.5673 0.951022H2.43272Z" fill="#06D9E2"/>
<path d="M12.8654 14.1817C11.7822 14.1817 10.4584 13.3353 10.0694 10.8997C8.9615 3.96201 7.806 3.68432 7.67857 3.6748C7.3809 3.65103 6.83786 4.36905 6.47362 5.55973C5.17167 9.8108 2.4955 9.4865 2.38232 9.47129L2.44794 9.00053L2.50786 8.52882C2.5887 8.53833 4.51261 8.71522 5.56444 5.28203C5.80886 4.48508 6.50881 2.64104 7.74514 2.72664C8.60581 2.78655 9.88018 3.68336 11.009 10.7504C11.2611 12.3291 12.0247 13.3049 12.9529 13.2278C14 13.1451 15.0595 11.7642 15.0595 9.28584H16.0105C16.0105 12.4822 14.4641 14.0619 13.0281 14.175C12.9748 14.1788 12.9206 14.1817 12.8654 14.1817Z" fill="#8C8CA2"/>
<path d="M16.0152 8.52502H1.61768V9.47605H16.0152V8.52502Z" fill="#06D9E2"/>
</g>
<defs>
<clipPath id="clip0_32_1472">
<rect width="18" height="18" fill="white"/>
</clipPath>
</defs>
</svg>
